Coordinates
version=1
nRows=38
nColumns=12
inDegrees=yes

Units are S.I. units (second, meters, Newtons, ...)
Angles are in degrees

endheader
time	SC_y	SC_z	SC_x	AC_y	AC_z	AC_x	GH_y	GH_z	GH_yy	EL_x	PS_y
       0.0              -44.64          8.967          71.72          60.69         -4.121          9.494         -132.5          3.856         -131.3          51.39          131.8
   0.03843              -44.64           8.97          71.71          60.68         -4.119          9.493         -132.5          3.861         -131.3           51.4          131.8
   0.07685              -44.63          8.973           71.7          60.68         -4.117          9.492         -132.5          3.866         -131.3          51.41          131.8
    0.1153              -44.63          8.976          71.69          60.68         -4.114          9.491         -132.5          3.872         -131.3          51.42          131.8
    0.1537              -44.62           8.98          71.68          60.67         -4.112           9.49         -132.5          3.878         -131.3          51.43          131.8
    0.1921              -44.62          8.984          71.67          60.67         -4.109          9.489         -132.5          3.885         -131.3          51.44          131.8
    0.2306              -44.61          8.988          71.65          60.66         -4.107          9.488         -132.4          3.892         -131.3          51.45          131.8
     0.269               -44.6          8.993          71.64          60.66         -4.104          9.487         -132.4          3.899         -131.3          51.46          131.7
    0.3074              -44.59          8.997          71.62          60.65         -4.101          9.485         -132.4          3.907         -131.3          51.47          131.7
    0.3458              -44.59          9.002          71.61          60.65         -4.098          9.484         -132.4          3.916         -131.3          51.48          131.7
    0.3843              -44.58          9.008          71.59          60.64         -4.094          9.483         -132.3          3.925         -131.3           51.5          131.7
    0.4227              -44.57          9.014          71.57          60.63          -4.09          9.481         -132.3          3.935         -131.3          51.51          131.7
    0.4611              -44.56           9.02          71.55          60.63         -4.086          9.479         -132.3          3.946         -131.2          51.53          131.7
    0.4996              -44.55          9.027          71.53          60.62         -4.082          9.477         -132.2          3.957         -131.2          51.54          131.6
     0.538              -44.54          9.035           71.5          60.61         -4.077          9.476         -132.2           3.97         -131.2          51.56          131.6
    0.5764              -44.52          9.043          71.48           60.6         -4.072          9.473         -132.1          3.984         -131.2          51.58          131.6
    0.6148              -44.51          9.052          71.45          60.59         -4.066          9.471         -132.1          3.998         -131.2           51.6          131.6
    0.6533               -44.5          9.061          71.42          60.58          -4.06          9.468         -132.0          4.015         -131.2          51.63          131.5
    0.6917              -44.48          9.072          71.38          60.57         -4.053          9.466         -132.0          4.032         -131.2          51.65          131.5
    0.7301              -44.46          9.083          71.35          60.56         -4.046          9.463         -131.9          4.051         -131.2          51.68          131.5
    0.7685              -44.44          9.096          71.31          60.54         -4.038          9.459         -131.8          4.073         -131.1          51.71          131.4
     0.807              -44.42          9.109          71.26          60.53         -4.029          9.456         -131.8          4.096         -131.1          51.75          131.4
    0.8454               -44.4          9.125          71.21          60.51         -4.019          9.452         -131.7          4.122         -131.1          51.78          131.4
    0.8838              -44.37          9.142          71.16          60.49         -4.008          9.447         -131.6           4.15         -131.1          51.83          131.3
    0.9223              -44.34          9.161           71.1          60.47         -3.996          9.442         -131.5          4.182         -131.0          51.87          131.3
    0.9607              -44.31          9.182          71.03          60.45         -3.982          9.437         -131.4          4.217         -131.0          51.93          131.2
    0.9991              -44.28          9.205          70.95          60.42         -3.967           9.43         -131.2          4.257         -131.0          51.98          131.1
     1.038              -44.23          9.232          70.87          60.39          -3.95          9.423         -131.1          4.302         -130.9          52.05          131.1
     1.076              -44.19          9.261          70.77          60.36         -3.931          9.415         -130.9          4.352         -130.9          52.12          131.0
     1.114              -44.14          9.295          70.66          60.32         -3.909          9.406         -130.7          4.409         -130.8          52.21          130.9
     1.153              -44.08          9.334          70.54          60.28         -3.884          9.396         -130.5          4.474         -130.8           52.3          130.8
     1.191              -44.01          9.379          70.39          60.23         -3.856          9.384         -130.3          4.549         -130.7          52.41          130.6
      1.23              -43.93           9.43          70.23          60.17         -3.823          9.371         -130.0          4.636         -130.7          52.54          130.5
     1.268              -43.84           9.49          70.04           60.1         -3.784          9.355         -129.7          4.736         -130.6          52.69          130.3
     1.307              -43.73           9.56          69.81          60.03         -3.739          9.336         -129.3          4.854         -130.5          52.86          130.1
     1.345               -43.6          9.642          69.54          59.93         -3.686          9.315         -128.8          4.993         -130.4          53.06          129.9
     1.383              -43.45           9.74          69.23          59.83         -3.623          9.289         -128.3          5.157         -130.2           53.3          129.6
     1.422              -43.27          9.857          68.85          59.69         -3.548          9.258         -127.7          5.355         -130.0          53.59          129.3
